HIERARCHY
ROOT Hips
{
  OFFSET 5.72205e-005 65.662 3.42586
  CHANNELS 6 Xposition Yposition Zposition Zrotation Xrotation Yrotation
  JOINT Chest
  {
    OFFSET 0 8.7983 -4.7612
    CHANNELS 3 Zrotation Xrotation Yrotation
    JOINT Chest2
    {
      OFFSET 0 8.0291 0.4195
      CHANNELS 3 Zrotation Xrotation Yrotation
      JOINT Chest3
      {
        OFFSET 0 9.9351 -2.2114
        CHANNELS 3 Zrotation Xrotation Yrotation
        JOINT Neck
        {
          OFFSET 0 22.3885 -0.4656
          CHANNELS 3 Zrotation Xrotation Yrotation
          JOINT Head
          {
            OFFSET -0.0001 12.643 3.4389
            CHANNELS 3 Zrotation Xrotation Yrotation
            End Site
            {
              OFFSET 0.0001 17.6655 0.5274
            }
          }
        }
        JOINT LeftCollar
        {
          OFFSET 2.2603 21.606 7.4023
          CHANNELS 3 Zrotation Xrotation Yrotation
          JOINT LeftShoulder
          {
            OFFSET 13.5163 -1.1332 -5.0146
            CHANNELS 3 Zrotation Xrotation Yrotation
            JOINT LeftElbow
            {
              OFFSET -0.0995 -28.05 -0.2431
              CHANNELS 3 Zrotation Xrotation Yrotation
              JOINT LeftWrist
              {
                OFFSET 0.0679 -23.3996 -0.1402
                CHANNELS 3 Zrotation Xrotation Yrotation
                JOINT LeftFinger1
                {
                  OFFSET 0.7932 -9.069 2.5189
                  CHANNELS 3 Zrotation Xrotation Yrotation
                  JOINT LeftFinger11
                  {
                    OFFSET -0.8272 -3.3923 0.5977
                    CHANNELS 3 Zrotation Xrotation Yrotation
                    JOINT LeftFinger12
                    {
                      OFFSET -0.5649 -2.3158 0.4082
                      CHANNELS 3 Zrotation Xrotation Yrotation
                      End Site
                      {
                        OFFSET -0.4919 -1.6479 0.2673
                      }
                    }
                  }
                }
                JOINT LeftFinger2
                {
                  OFFSET 0.9159 -9.2044 0.2193
                  CHANNELS 3 Zrotation Xrotation Yrotation
                  JOINT LeftFinger21
                  {
                    OFFSET 0.0117 -4.1944 -0.0248
                    CHANNELS 3 Zrotation Xrotation Yrotation
                    JOINT LeftFinger22
                    {
                      OFFSET 0.0071 -2.3249 -0.0142
                      CHANNELS 3 Zrotation Xrotation Yrotation
                      End Site
                      {
                        OFFSET -0.1475 -2.0882 0.0028
                      }
                    }
                  }
                }
                JOINT LeftFinger3
                {
                  OFFSET 0.6113 -8.7231 -2.0637
                  CHANNELS 3 Zrotation Xrotation Yrotation
                  JOINT LeftFinger31
                  {
                    OFFSET -0.1927 -3.8059 -0.2383
                    CHANNELS 3 Zrotation Xrotation Yrotation
                    JOINT LeftFinger32
                    {
                      OFFSET -0.1091 -2.1688 -0.1362
                      CHANNELS 3 Zrotation Xrotation Yrotation
                      End Site
                      {
                        OFFSET -0.2358 -1.9176 -0.0906
                      }
                    }
                  }
                }
                JOINT LeftFinger4
                {
                  OFFSET -0.6151 -8.0947 -3.5641
                  CHANNELS 3 Zrotation Xrotation Yrotation
                  JOINT LeftFinger41
                  {
                    OFFSET -0.4882 -2.341 -0.6462
                    CHANNELS 3 Zrotation Xrotation Yrotation
                    JOINT LeftFinger42
                    {
                      OFFSET -0.3575 -1.7167 -0.4742
                      CHANNELS 3 Zrotation Xrotation Yrotation
                      End Site
                      {
                        OFFSET -0.4187 -1.5237 -0.3496
                      }
                    }
                  }
                }
                JOINT LeftFinger0
                {
                  OFFSET -1.42 -1.8761 1.4223
                  CHANNELS 3 Zrotation Xrotation Yrotation
                  JOINT LeftFinger01
                  {
                    OFFSET -1.1471 -3.4929 2.6334
                    CHANNELS 3 Zrotation Xrotation Yrotation
                    JOINT LeftFinger02
                    {
                      OFFSET -0.823 -2.3 1.6571
                      CHANNELS 3 Zrotation Xrotation Yrotation
                      End Site
                      {
                        OFFSET -0.5822 -1.6914 1.1582
                      }
                    }
                  }
                }
              }
            }
          }
        }
        JOINT RightCollar
        {
          OFFSET -2.2603 21.606 7.4023
          CHANNELS 3 Zrotation Xrotation Yrotation
          JOINT RightShoulder
          {
            OFFSET -13.5187 -1.1334 -5.0155
            CHANNELS 3 Zrotation Xrotation Yrotation
            JOINT RightElbow
            {
              OFFSET 0.0994 -28.0499 -0.2431
              CHANNELS 3 Zrotation Xrotation Yrotation
              JOINT RightWrist
              {
                OFFSET -0.0679 -23.3996 -0.1402
                CHANNELS 3 Zrotation Xrotation Yrotation
                JOINT RightFinger1
                {
                  OFFSET -0.7932 -9.0691 2.5189
                  CHANNELS 3 Zrotation Xrotation Yrotation
                  JOINT RightFinger11
                  {
                    OFFSET 0.8272 -3.3923 0.5977
                    CHANNELS 3 Zrotation Xrotation Yrotation
                    JOINT RightFinger12
                    {
                      OFFSET 0.565 -2.3158 0.4082
                      CHANNELS 3 Zrotation Xrotation Yrotation
                      End Site
                      {
                        OFFSET 0.4919 -1.6479 0.2673
                      }
                    }
                  }
                }
                JOINT RightFinger2
                {
                  OFFSET -0.916 -9.2044 0.2193
                  CHANNELS 3 Zrotation Xrotation Yrotation
                  JOINT RightFinger21
                  {
                    OFFSET -0.0117 -4.1944 -0.0248
                    CHANNELS 3 Zrotation Xrotation Yrotation
                    JOINT RightFinger22
                    {
                      OFFSET -0.0071 -2.3249 -0.0142
                      CHANNELS 3 Zrotation Xrotation Yrotation
                      End Site
                      {
                        OFFSET 0.1475 -2.0882 0.0028
                      }
                    }
                  }
                }
                JOINT RightFinger3
                {
                  OFFSET -0.6113 -8.7231 -2.0637
                  CHANNELS 3 Zrotation Xrotation Yrotation
                  JOINT RightFinger31
                  {
                    OFFSET 0.1927 -3.8059 -0.2383
                    CHANNELS 3 Zrotation Xrotation Yrotation
                    JOINT RightFinger32
                    {
                      OFFSET 0.1091 -2.1688 -0.1362
                      CHANNELS 3 Zrotation Xrotation Yrotation
                      End Site
                      {
                        OFFSET 0.2358 -1.9176 -0.0906
                      }
                    }
                  }
                }
                JOINT RightFinger4
                {
                  OFFSET 0.6151 -8.0947 -3.564
                  CHANNELS 3 Zrotation Xrotation Yrotation
                  JOINT RightFinger41
                  {
                    OFFSET 0.4882 -2.341 -0.6462
                    CHANNELS 3 Zrotation Xrotation Yrotation
                    JOINT RightFinger42
                    {
                      OFFSET 0.3574 -1.7166 -0.4742
                      CHANNELS 3 Zrotation Xrotation Yrotation
                      End Site
                      {
                        OFFSET 0.4187 -1.5237 -0.3496
                      }
                    }
                  }
                }
                JOINT RightFinger0
                {
                  OFFSET 1.4199 -1.8761 1.4221
                  CHANNELS 3 Zrotation Xrotation Yrotation
                  JOINT RightFinger01
                  {
                    OFFSET 1.1472 -3.4929 2.6336
                    CHANNELS 3 Zrotation Xrotation Yrotation
                    JOINT RightFinger02
                    {
                      OFFSET 0.8229 -2.3 1.6571
                      CHANNELS 3 Zrotation Xrotation Yrotation
                      End Site
                      {
                        OFFSET 0.5822 -1.6914 1.1582
                      }
                    }
                  }
                }
              }
            }
          }
        }
      }
    }
  }
  JOINT RightHip
  {
    OFFSET -9.412 3.9771 -0.7758
    CHANNELS 3 Zrotation Xrotation Yrotation
    JOINT RightKnee
    {
      OFFSET -0.7531 -40.938 0
      CHANNELS 3 Zrotation Xrotation Yrotation
      JOINT RightAnkle
      {
        OFFSET 0 -40.1986 0
        CHANNELS 3 Zrotation Xrotation Yrotation
        JOINT RightToe
        {
          OFFSET 0 -4.4182 9.239
          CHANNELS 3 Zrotation Xrotation Yrotation
          End Site
          {
            OFFSET 0 0 6.1981
          }
        }
      }
    }
  }
  JOINT LeftHip
  {
    OFFSET 9.4119 3.9773 -0.7758
    CHANNELS 3 Zrotation Xrotation Yrotation
    JOINT LeftKnee
    {
      OFFSET 0.7532 -40.9383 0
      CHANNELS 3 Zrotation Xrotation Yrotation
      JOINT LeftAnkle
      {
        OFFSET 0 -40.1986 0
        CHANNELS 3 Zrotation Xrotation Yrotation
        JOINT LeftToe
        {
          OFFSET 0 -4.4182 9.239
          CHANNELS 3 Zrotation Xrotation Yrotation
          End Site
          {
            OFFSET 0 0 6.1981
          }
        }
      }
    }
  }
}
MOTION
Frames:	6
Frame Time:	0.0333333
5.72205e-005 65.662 3.42586 0 0 -0 0 0 -0 0 0 -0 0 0 -0 0 0 -0 0 0 -0 0 0 -12.5014 88.1196 14.2451 10.6914 -0.00160068 -0.00239207 0.000740045 -8.4365e-005 7.00714e-005 -9.52055e-007 9.93923e-017 -1.98785e-016 -1.59028e-015 9.93923e-017 -5.96354e-016 -1.59028e-015 -9.93923e-017 -5.96354e-016 -1.59028e-015 9.93923e-017 -1.98785e-016 -1.59028e-015 -0.0128176 0.00232552 8.52707e-005 9.93923e-017 5.96354e-016 -0 9.93923e-017 -1.98785e-016 -1.59028e-015 -0.0160551 0.00299681 0.000857156 -2.48481e-016 0 3.18055e-015 9.93923e-017 -1.98785e-016 -1.59028e-015 -0.0125865 0.0031206 0.00282719 0 1.98785e-016 -0 9.93923e-017 -1.98785e-016 -1.59028e-015 9.93923e-017 -5.96354e-016 -1.59028e-015 -9.93923e-017 -5.96354e-016 -1.59028e-015 -0.865644 0.16582 7.03859 -88.0329 10.2057 -10.5567 0.0015593 -0.00248883 -0.000788628 7.87605e-005 4.10553e-005 1.24965e-005 -3.97569e-016 -7.95139e-016 3.18055e-015 -1.98785e-016 -3.97569e-016 3.18055e-015 -1.98785e-016 0 3.18055e-015 -3.97569e-016 -7.95139e-016 3.18055e-015 0.0129473 0.00231697 -8.70038e-005 9.93923e-017 -7.95139e-016 1.59028e-015 -3.97569e-016 -7.95139e-016 3.18055e-015 0.0163314 0.00303369 -0.000872333 3.97569e-016 7.95139e-016 -3.18055e-015 -3.97569e-016 -7.95139e-016 3.18055e-015 0.0145763 0.00367772 -0.00326275 9.93923e-017 -3.97569e-016 -0 -3.97569e-016 -7.95139e-016 3.18055e-015 -1.98785e-016 -3.97569e-016 3.18055e-015 -1.98785e-016 0 3.18055e-015 3.42482 1.32465 -0.0626183 0.000117508 0.717283 0.000978199 -3.4257 -2.04197 -0.0604716 6.47761e-025 0 -0 -3.42483 1.34017 0.0627307 -0.000193936 0.682302 -0.0013703 3.42574 -2.02253 0.0595886 -8.45714e-024 0 -7.40531e-025 
-0.346666 2.13866 9.7312 180 -89.9981 180 -0.0789667 7.72075 -0.142768 -0.14025 15.4418 -0.278534 -0.14025 15.4417 -0.278535 0.000699796 17.997 26.9971 -0.00209223 4.99621 24.9967 -0.877495 3.44001 -0.37297 4.24927 33.6864 24.8548 -31.1342 -71.4522 -58.0688 -7.5836 1.6974 -26.5415 5.96354e-016 -1.59028e-015 -1.2921e-015 -2.17727e-006 3.14715e-007 -5.83945e-006 -1.67331e-006 -1.37202e-007 -3.36425e-007 5.96354e-016 -1.59028e-015 -1.2921e-015 -0.0128053 0.00232397 9.38908e-005 -9.69109e-006 9.30722e-006 -4.1489e-006 5.96354e-016 -1.59028e-015 -1.2921e-015 -0.016067 0.00299772 0.000863796 -2.1782e-006 7.18184e-007 -5.8395e-006 5.96354e-016 -1.59028e-015 -1.2921e-015 -0.0125977 0.00314444 0.00283804 -1.98785e-016 -1.59028e-015 -1.68967e-015 5.96354e-016 -1.59028e-015 -1.2921e-015 -2.17727e-006 3.14715e-007 -5.83945e-006 -1.67331e-006 -1.37202e-007 -3.36425e-007 5.11875 -0.371764 15.4632 -25.1145 -16.009 13.6721 51.5658 -45.8573 2.47206 -26.468 8.13259 -2.745 2.79309e-006 -1.34907e-006 -8.754e-006 -3.12048e-006 7.90813e-008 2.38257e-006 1.90901e-006 -1.2331e-006 -5.07975e-006 2.79309e-006 -1.34907e-006 -8.754e-006 0.0129586 0.00232084 -9.64616e-005 -6.21894e-006 3.78893e-007 5.18965e-006 2.79309e-006 -1.34907e-006 -8.754e-006 0.0163431 0.00303167 -0.000879906 -3.44439e-006 1.00813e-005 -3.6366e-006 2.79309e-006 -1.34907e-006 -8.754e-006 0.0145621 0.00367981 -0.00325447 -4.95705e-007 -1.05125e-005 7.74977e-007 2.79309e-006 -1.34907e-006 -8.754e-006 -3.12048e-006 7.90813e-008 2.38257e-006 1.90901e-006 -1.2331e-006 -5.07975e-006 -27.8492 -40.4805 11.8247 175.735 69.3277 -178.27 -10.7135 32.5002 41.7968 7.0522e-008 2.09524e-009 -2.01456e-007 9.06495 4.18814 -25.5156 -5.63536 4.31259 0.147536 13.4633 -6.03402 4.73081 -5.48436e-007 1.02367e-005 5.21135e-006 
-0.347105 2.13869 9.73121 -179.999 -89.9981 -179.999 -0.0751096 7.90392 -0.143591 -0.131908 15.808 -0.280675 -0.131908 15.8081 -0.280675 0.120347 17.3109 26.9578 -0.00968076 4.68872 24.9966 -1.36092 3.16882 -0.583003 4.7334 33.7075 24.6477 -30.4178 -71.4514 -57.3812 -7.17285 1.09068 -26.2338 -2.02239e-006 -1.90729e-006 1.79185e-006 -9.93923e-016 -1.59028e-015 -5.96354e-016 1.53965e-007 -3.60453e-006 7.63372e-006 -2.02239e-006 -1.90729e-006 1.79185e-006 -0.0128097 0.0023159 8.65652e-005 1.32337e-006 6.87932e-008 2.46578e-006 -2.02239e-006 -1.90729e-006 1.79185e-006 -0.016041 0.0029953 0.000867089 -3.34643e-006 -2.41231e-006 -6.7404e-007 -2.02239e-006 -1.90729e-006 1.79185e-006 -0.012593 0.00311892 0.00283447 -9.93923e-016 1.59028e-015 -4.17448e-015 -2.02239e-006 -1.90729e-006 1.79185e-006 -9.93923e-016 -1.59028e-015 -5.96354e-016 1.53965e-007 -3.60453e-006 7.63372e-006 4.72358 -0.932221 15.2507 -24.8639 -15.9098 13.7897 52.348 -46.7118 3.38725 -26.8708 7.82191 -2.51014 -6.36111e-015 -7.95139e-016 -5.96354e-016 -3.18055e-015 -2.38542e-015 -0 5.51738e-033 -1.59028e-015 1.98785e-016 -6.36111e-015 -7.95139e-016 -5.96354e-016 0.0129576 0.00231163 -7.48962e-005 -0 -1.59028e-015 -0 -6.36111e-015 -7.95139e-016 -5.96354e-016 0.0163264 0.00303699 -0.000880883 -6.36111e-015 1.27222e-014 -3.97569e-016 -6.36111e-015 -7.95139e-016 -5.96354e-016 0.0145765 0.00367592 -0.00326278 3.18055e-015 -7.95139e-016 1.59028e-015 -6.36111e-015 -7.95139e-016 -5.96354e-016 -3.18055e-015 -2.38542e-015 -0 5.51738e-033 -1.59028e-015 1.98785e-016 -28.9632 -40.6412 10.5269 175.735 69.3286 -178.275 -11.9656 32.3558 42.4923 -2.46617e-015 0 3.72721e-016 9.06533 4.18821 -25.5157 -5.6354 4.31235 0.147526 13.4631 -6.03401 4.73081 -3.18055e-015 3.18055e-015 -3.77691e-015 
-0.347535 2.13872 9.73118 180 -89.9981 180 -0.07124 8.08713 -0.144446 -0.12352 16.1744 -0.282916 -0.12352 16.1745 -0.282916 0.23912 16.6244 26.9202 -0.0172697 4.38122 24.9964 -1.84538 2.89938 -0.795326 5.21767 33.727 24.4404 -29.7014 -71.4479 -56.6938 -6.75866 0.485786 -25.9217 -4.2817e-006 7.27952e-006 4.03771e-006 2.18663e-015 0 -9.88954e-015 -6.07527e-006 1.13914e-005 2.48613e-006 -4.2817e-006 7.27952e-006 4.03771e-006 -0.0128263 0.00232414 8.78028e-005 -1.67315e-006 -2.47043e-006 -3.37413e-007 -4.2817e-006 7.27952e-006 4.03771e-006 -0.0160307 0.0029973 0.00085511 -4.55158e-006 -1.0013e-006 -1.9257e-006 -4.2817e-006 7.27952e-006 4.03771e-006 -0.0125731 0.00311403 0.00282365 -8.53928e-007 1.34499e-006 -3.37842e-006 -4.2817e-006 7.27952e-006 4.03771e-006 2.18663e-015 0 -9.88954e-015 -6.07527e-006 1.13914e-005 2.48613e-006 4.32607 -1.49144 15.0341 -24.6133 -15.8101 13.9068 53.1634 -47.5584 4.3354 -27.2722 7.50947 -2.27756 1.65521e-031 1.19271e-014 -7.95139e-016 -8.27607e-032 1.19271e-014 3.97569e-016 3.18055e-015 1.11319e-014 -1.98785e-016 1.65521e-031 1.19271e-014 -7.95139e-016 0.0129532 0.00232183 -9.47182e-005 -3.18055e-015 7.95139e-016 -1.98785e-016 1.65521e-031 1.19271e-014 -7.95139e-016 0.016328 0.00303289 -0.000879614 -3.18055e-015 1.59028e-015 -1.78906e-015 1.65521e-031 1.19271e-014 -7.95139e-016 0.0145777 0.0036793 -0.00326409 3.18055e-015 7.95139e-016 -9.93923e-016 1.65521e-031 1.19271e-014 -7.95139e-016 -8.27607e-032 1.19271e-014 3.97569e-016 3.18055e-015 1.11319e-014 -1.98785e-016 -30.0858 -40.7821 9.22062 175.735 69.3304 -178.28 -13.2145 32.1985 43.1833 -5.247e-007 -1.45366e-008 2.11844e-007 9.06543 4.18775 -25.5157 -5.63546 4.31352 0.147635 13.4628 -6.0348 4.73088 -1.62277e-006 -9.41197e-007 1.43686e-006 
-0.347969 2.13873 9.73116 -179.999 -89.9981 -179.999 -0.0673574 8.27034 -0.145334 -0.115084 16.5409 -0.285259 -0.115084 16.5409 -0.28526 0.357043 15.9376 26.8842 -0.0248584 4.07367 24.9963 -2.33086 2.63158 -1.00994 5.70223 33.7452 24.2328 -28.9855 -71.4417 -56.0068 -6.34098 -0.117033 -25.6051 9.93923e-016 -3.18055e-015 -1.54555e-014 -7.01601e-007 -1.45885e-006 4.25402e-006 2.52594e-006 -9.06206e-007 3.71848e-006 9.93923e-016 -3.18055e-015 -1.54555e-014 -0.0128183 0.00232495 8.9277e-005 3.97569e-016 -3.18055e-015 2.33572e-015 9.93923e-016 -3.18055e-015 -1.54555e-014 -0.0160419 0.00300549 0.00085775 -4.48012e-006 7.92139e-006 1.09183e-005 9.93923e-016 -3.18055e-015 -1.54555e-014 -0.0125903 0.00312064 0.00282729 7.95139e-016 3.18055e-015 5.76476e-015 9.93923e-016 -3.18055e-015 -1.54555e-014 -7.01601e-007 -1.45885e-006 4.25402e-006 2.52594e-006 -9.06206e-007 3.71848e-006 3.92617 -2.04941 14.8135 -24.3627 -15.7097 14.0236 54.0137 -48.3962 5.31821 -27.6722 7.19537 -2.04736 -2.76869e-006 8.55489e-006 -6.64768e-006 1.2926e-006 -1.02892e-006 -1.0366e-005 -3.18055e-015 1.59028e-015 -0 -2.76869e-006 8.55489e-006 -6.64768e-006 0.0129505 0.00230902 -9.43069e-005 3.97252e-031 1.43125e-014 -1.59028e-015 -2.76869e-006 8.55489e-006 -6.64768e-006 0.0163334 0.00303801 -0.000877304 3.18055e-015 0 -1.98785e-015 -2.76869e-006 8.55489e-006 -6.64768e-006 0.014581 0.00367788 -0.00327844 -4.07282e-006 -7.77976e-006 3.22813e-006 -2.76869e-006 8.55489e-006 -6.64768e-006 1.2926e-006 -1.02892e-006 -1.0366e-005 -3.18055e-015 1.59028e-015 -0 -31.2147 -40.9042 7.90792 175.735 69.3315 -178.286 -14.4596 32.0282 43.8691 3.53596e-008 2.19851e-009 -1.00694e-007 9.06565 4.18762 -25.5157 -5.63546 4.31376 0.147648 13.4626 -6.03503 4.73089 2.44623e-006 4.50443e-007 -1.36349e-006 
-0.348411 2.13874 9.73116 -179.999 -89.9981 -179.999 -0.0634622 8.45362 -0.146255 -0.106599 16.9074 -0.287706 -0.106599 16.9074 -0.287707 0.474164 15.2506 26.8497 -0.0324343 3.76612 24.9961 -2.81735 2.36561 -1.22682 6.18705 33.7618 24.0249 -28.27 -71.4327 -55.3202 -5.91977 -0.717818 -25.2839 3.07863e-006 -9.14081e-006 -5.29208e-006 -1.59028e-015 -1.59028e-015 3.52843e-015 2.18663e-015 -4.77083e-015 1.05356e-014 3.07863e-006 -9.14081e-006 -5.29208e-006 -0.0128178 0.00232695 8.50095e-005 -9.93923e-016 -3.18055e-015 5.06901e-015 3.07863e-006 -9.14081e-006 -5.29208e-006 -0.0160353 0.00299876 0.000854117 -1.19271e-015 3.18055e-015 -4.57205e-015 3.07863e-006 -9.14081e-006 -5.29208e-006 -0.0125662 0.00312209 0.00282399 -2.18663e-015 3.18055e-015 7.40473e-015 3.07863e-006 -9.14081e-006 -5.29208e-006 -1.59028e-015 -1.59028e-015 3.52843e-015 2.18663e-015 -4.77083e-015 1.05356e-014 3.52384 -2.60595 14.5889 -24.1129 -15.6091 14.1397 54.9013 -49.2245 6.33702 -28.0706 6.87964 -1.81946 3.18055e-015 -1.59028e-015 7.95139e-016 -3.47531e-006 -7.34317e-007 -2.12394e-006 1.10348e-032 -7.95139e-016 7.95139e-016 3.18055e-015 -1.59028e-015 7.95139e-016 0.0129484 0.00232446 -9.25468e-005 6.36111e-015 0 -3.97569e-016 3.18055e-015 -1.59028e-015 7.95139e-016 0.0163459 0.0030236 -0.00087803 3.31043e-032 -1.59028e-015 1.19271e-015 3.18055e-015 -1.59028e-015 7.95139e-016 0.0145726 0.00367652 -0.00326107 -6.36111e-015 -2.38542e-015 7.95139e-016 3.18055e-015 -1.59028e-015 7.95139e-016 -3.47531e-006 -7.34317e-007 -2.12394e-006 1.10348e-032 -7.95139e-016 7.95139e-016 -32.3503 -41.0062 6.58891 175.735 69.3333 -178.291 -15.7005 31.8453 44.5494 -3.53939e-008 -9.54166e-015 1.00681e-007 9.06627 4.18816 -25.5158 -5.63549 4.31235 0.147528 13.4623 -6.03437 4.73081 -1.67108e-006 -5.0124e-007 -1.73033e-006 
